<?xml version="1.0" encoding="UTF-8"?>
<svg width="52px" height="52px" viewBox="0 0 52 52" version="1.1" xmlns="http://www.w3.org/2000/svg" xmlns:xlink="http://www.w3.org/1999/xlink">
    <!-- Generator: Sketch 49.1 (51147) - http://www.bohemiancoding.com/sketch -->
    <title>logo</title>
    <desc>Created with Sketch.</desc>
    <defs>
        <linearGradient x1="49.9992044%" y1="100.001171%" x2="49.9992044%" y2="-0.000334532073%" id="linearGradient-1">
            <stop stop-color="#A97E5E" stop-opacity="0" offset="0%"></stop>
            <stop stop-color="#A77B5B" stop-opacity="0.0728" offset="7.28%"></stop>
            <stop stop-color="#976241" stop-opacity="0.6682" offset="66.82%"></stop>
            <stop stop-color="#905938" offset="100%"></stop>
        </linearGradient>
        <radialGradient cx="25.2003144%" cy="30.8667551%" fx="25.2003144%" fy="30.8667551%" r="55.8852634%" gradientTransform="translate(0.252003,0.308668),scale(0.782524,1.000000),translate(-0.252003,-0.308668)" id="radialGradient-2">
            <stop stop-color="#A97E5E" offset="5.52%"></stop>
            <stop stop-color="#905938" offset="100%"></stop>
        </radialGradient>
        <linearGradient x1="65.1578856%" y1="89.6808937%" x2="37.7986895%" y2="11.6019909%" id="linearGradient-3">
            <stop stop-color="#FFFFFF" offset="0%"></stop>
            <stop stop-color="#FEFEFD" offset="13.19%"></stop>
            <stop stop-color="#F9F6F2" offset="25.54%"></stop>
            <stop stop-color="#EEE5DD" offset="37.55%"></stop>
            <stop stop-color="#DFCCBD" offset="49.36%"></stop>
            <stop stop-color="#CDAD96" offset="61.02%"></stop>
            <stop stop-color="#B78B70" offset="72.57%"></stop>
            <stop stop-color="#9D6948" offset="84.04%"></stop>
            <stop stop-color="#83461E" offset="95.17%"></stop>
            <stop stop-color="#804219" offset="96.32%"></stop>
        </linearGradient>
        <linearGradient x1="55.0096119%" y1="81.7191283%" x2="43.0069286%" y2="8.4761088%" id="linearGradient-4">
            <stop stop-color="#FFFFFF" offset="0%"></stop>
            <stop stop-color="#FFFFFF" offset="92.94%"></stop>
            <stop stop-color="#FFFFFF" offset="96.32%"></stop>
        </linearGradient>
        <linearGradient x1="67.5031543%" y1="86.2068073%" x2="44.7801751%" y2="12.6857813%" id="linearGradient-5">
            <stop stop-color="#FFFFFF" offset="0%"></stop>
            <stop stop-color="#FEFEFD" offset="13.19%"></stop>
            <stop stop-color="#F9F6F2" offset="25.54%"></stop>
            <stop stop-color="#EEE5DD" offset="37.55%"></stop>
            <stop stop-color="#DFCCBD" offset="49.36%"></stop>
            <stop stop-color="#CDAD96" offset="61.02%"></stop>
            <stop stop-color="#B78B70" offset="72.57%"></stop>
            <stop stop-color="#9D6948" offset="84.04%"></stop>
            <stop stop-color="#83461E" offset="95.17%"></stop>
            <stop stop-color="#804219" offset="96.32%"></stop>
        </linearGradient>
    </defs>
    <g id="Landing-Page" stroke="none" stroke-width="1" fill="none" fill-rule="evenodd">
        <g id="Styleguide" transform="translate(-458.000000, -68.000000)">
            <g id="logo" transform="translate(458.000000, 68.000000)">
                <circle id="Mask" fill="#F5F4F4" cx="26" cy="26" r="26"></circle>
                <g id="Group-50" transform="translate(5.850000, 0.650000)">
                    <g id="vetor-(enviar)-01">
                        <path d="M12.1224158,40.9594014 C12.1224158,40.9594014 15.2869012,44.3917187 18.7152378,45.4786914 C18.7152378,45.4786914 24.561361,47.8418483 28.8717823,45.5476994 C32.3508962,41.0970503 34.0366029,38.8029014 34.7986347,36.256396 C35.5606665,33.7098907 35.7454015,30.8880874 34.2213379,29.8327789 C34.1058785,27.7451033 33.7364086,25.8639012 33.7364086,25.8639012 L33.5054898,23.5697522 C33.5054898,23.5697522 28.6561966,24.2121139 23.1141472,23.0650394 C17.5720977,21.9179649 10.8754547,24.3038799 10.1826985,27.7909863 C10.0441472,29.4886565 10.1826985,32.0581034 11.6143946,33.1134119 C10.275066,32.7922311 8.70481864,32.1957523 8.70481864,32.1957523 C8.70481864,32.1957523 10.4906517,33.8934226 10.8907877,33.9851885 C9.35139107,33.7557736 7.64259249,32.883997 7.64259249,32.883997 C7.64259249,32.883997 3.76315789,32.4251672 3.76315789,35.7746247 C3.76315789,39.1240822 8.92040436,38.3594883 9.69001029,37.135881 C10.3674335,38.3899546 12.1224158,40.9594014 12.1224158,40.9594014 Z" id="Shape" fill="#FAE1D4" fill-rule="nonzero"></path>
                        <path d="M34.7933239,36.3423231 C35.5623933,33.7866949 35.7488344,30.9547825 34.2106955,29.8956933 C34.0941699,27.8005386 33.7212877,25.912597 33.7212877,25.912597 L33.4882364,23.6102292 C33.4882364,23.6102292 30.021551,24.0666506 25.5894737,23.5251337 C25.6515586,25.7943474 25.8698811,30.1329293 26.6365268,32.635511 C27.708563,36.13511 28.6232429,38.3827736 28.6232429,38.3827736 C28.6232429,38.3827736 27.5064608,39.41976 27.5842068,39.8494739 C28.9319893,39.8877853 28.9437351,40.4633773 28.9437351,40.4633773 C28.9437351,40.4633773 29.048515,40.7282417 28.7805992,40.9698982 C29.3399224,41.3843244 29.4331429,41.98294 29.0602608,42.3052715 C28.6873786,42.627603 28.4233781,43.5945975 28.3767678,43.916929 C28.3301575,44.2392605 28.6407684,45.2983497 28.6407684,45.2983497 L28.904396,45.5486631 C32.3522509,41.1603501 34.0311528,38.8751119 34.7933239,36.3423231 Z" id="Shape" fill="url(#linearGradient-1)" fill-rule="nonzero" opacity="0.2"></path>
                        <path d="M4.70907814,33.4712095 C4.70907814,33.4712095 6.70910157,32.4102771 7.72060767,32.8946158 C8.64015867,33.4942733 9.59428479,33.9441086 10.9736113,34.0363636 C9.84716132,33.2983237 9.23786682,32.5488441 9.23786682,32.5488441 C9.23786682,32.5488441 12.2264076,33.5405853 12.4562953,33.655904 C11.1229464,32.5027166 9.1689005,30.6345529 10.5942046,27.4056281 C12.0195086,24.1767033 15.2609259,22.2393484 25.0541441,23.3464083 C34.8473622,24.4534682 40.1807581,22.4699858 41.7899723,16.8424311 C40.9163989,17.3498336 39.9050767,18.0417461 38.2344364,17.9186779 C39.8896282,16.165833 44.5486253,11.6453382 41.2382417,1.2513369 C39.1539874,3.2809468 35.2302633,4.94153671 27.8740392,4.26493858 C20.5176311,3.58834044 7.95049542,0.0212087896 6.54045591,13.36737 C0.900665704,17.0575698 -2.76227376,20.2403671 4.70907814,33.4712095 Z" id="Shape" fill="url(#radialGradient-2)" fill-rule="nonzero"></path>
                        <path d="M4.67423607,33.5358289 C4.00784388,32.7871775 3.43712369,31.9594393 2.89896877,31.1110538 C2.36762127,30.2578752 1.893309,29.3659827 1.48081556,28.44146 C0.664659919,26.5940738 0.0801408802,24.5964411 0.00599509083,22.5145598 C-0.0269381506,21.477214 0.0737014196,20.4216174 0.360349409,19.4073156 C0.645709507,18.3944885 1.11726201,17.4283024 1.75440064,16.598352 C2.3887795,15.7656364 3.17328979,15.0684191 4.03120993,14.5183143 C4.89299374,13.9724495 5.81549247,13.5495472 6.77368421,13.2641711 C5.91484415,13.774456 5.08672951,14.3147902 4.35428687,14.9544899 C3.61890046,15.5873685 2.97053877,16.3022836 2.46458115,17.098682 C1.95696767,17.8936056 1.5901024,18.7641133 1.37300059,19.6744409 C1.15369096,20.5842155 1.07604946,21.5301229 1.1089827,22.4784269 C1.17448122,24.3794594 1.6438259,26.2792015 2.28464422,28.1214258 C2.93226998,29.9662311 3.74566585,31.7682669 4.67423607,33.5358289 Z" id="Shape" fill="#A47457" fill-rule="nonzero"></path>
                        <path d="M6.53154446,13.2708286 C6.4956818,12.4073289 6.57108534,11.5353942 6.74175483,10.6810632 C6.91279214,9.82673213 7.1741298,8.98322007 7.55537748,8.18738478 C7.9338665,7.39136612 8.42729995,6.64100713 9.03218352,5.98196749 C9.64000967,5.32604517 10.3600216,4.76859373 11.1490001,4.33638548 C11.9381626,3.90527747 12.7889353,3.58492626 13.6634325,3.38926813 C14.5366424,3.18719198 15.4287951,3.08468693 16.3178213,3.05938157 C16.7627022,3.04379493 17.2070314,3.05149657 17.6502571,3.06983378 C17.8722378,3.07735204 18.0927472,3.09660612 18.3138083,3.11164264 L18.9611753,3.16628755 L21.5456779,3.37258127 C22.4073013,3.43749502 23.2685569,3.49617412 24.1299965,3.54898531 C24.9908843,3.60766441 25.8515882,3.65754164 26.7121081,3.69861701 C28.4325964,3.78095113 30.1530846,3.81450824 31.8636416,3.77710031 C32.7186443,3.75821297 33.5710722,3.71493714 34.4157758,3.63333652 C35.2599277,3.55118578 36.0974588,3.43126036 36.9085067,3.24073666 C37.716612,3.04727901 38.5070618,2.79514225 39.2007745,2.40841031 C39.8920962,2.02314534 40.469761,1.49044914 40.7853524,0.811972044 L41.1629219,0 L41.6309756,0.749075384 C41.8718991,1.13452372 42.0241775,1.5170381 42.1610073,1.90321993 C42.2963659,2.28885164 42.4011952,2.67760068 42.4894725,3.06836681 C42.6652915,3.84934895 42.7761899,4.63674912 42.8400071,5.42634976 C42.9023529,6.2159504 42.9174336,7.00793487 42.8789962,7.79753551 C42.8374323,8.58676941 42.7473159,9.37325272 42.6020261,10.1494672 C42.4541616,10.9249482 42.2584802,11.6925441 41.98997,12.4352015 C41.721092,13.1773087 41.3935464,13.8979614 40.9981375,14.5791891 C40.6007057,15.2589498 40.1359623,15.8981852 39.6081375,16.4770912 C39.0832553,17.0589312 38.4864638,17.5698061 37.8536257,18.0192513 C38.1491709,17.7671146 38.4318422,17.5015917 38.6994328,17.2230493 C38.9677591,16.9448737 39.2153034,16.6487276 39.4534683,16.3474471 C39.929798,15.7436025 40.3288851,15.0852963 40.6720632,14.4040687 C41.0139539,13.7211906 41.2870618,13.0067726 41.50187,12.2769513 C41.7117125,11.5454796 41.8735543,10.8011719 41.9767284,10.0480624 C42.0802704,9.29513616 42.1304781,8.53542519 42.1337885,7.77626434 C42.1394897,7.01728686 42.1019719,6.258126 42.0149819,5.50574992 C41.9278081,4.75392395 41.7957599,4.00741578 41.6055958,3.28254552 C41.5094104,2.92093557 41.4007189,2.56390992 41.2736363,2.22045381 C41.1465538,1.87956492 40.997218,1.54216009 40.8195599,1.27351984 L41.665183,1.21080655 C41.4641682,1.65860143 41.1800256,2.07045536 40.8405257,2.41684543 C40.5017615,2.76525258 40.1142608,3.05002959 39.7107599,3.28951366 C38.8984246,3.76169705 38.0281574,4.05967685 37.1556832,4.27018812 C36.2819216,4.48143288 35.4020909,4.61254399 34.5239155,4.70423009 C33.6453722,4.79536606 32.7675646,4.84561004 31.89178,4.87091541 C31.0158115,4.89952147 30.1414982,4.89090297 29.2693918,4.87091541 C28.3969176,4.85092784 27.5264664,4.81370328 26.6576704,4.76767686 C25.7886906,4.72036684 24.921182,4.66407158 24.0547768,4.59897445 C23.1889234,4.52855953 22.3239896,4.45135984 21.4603431,4.36884236 L18.870875,4.10900397 L18.2251632,4.04115626 C18.0147689,4.02391927 17.8043746,3.99788042 17.5939803,3.98357739 C17.1730078,3.95167063 16.7512997,3.93003271 16.3305111,3.93058283 C15.4887501,3.92599853 14.6484603,3.99457972 13.8287686,4.15503039 C13.008893,4.31419745 12.2099832,4.56908479 11.4620168,4.9328952 C10.71497,5.29743911 10.0251195,5.78044145 9.42887974,6.36576547 C8.82822612,6.94668856 8.31750503,7.62644926 7.9088546,8.36763964 C7.50222718,9.10993025 7.18093451,9.9053988 6.95417214,10.7311238 C6.73182363,11.5570321 6.56759103,12.4075123 6.53154446,13.2708286 Z" id="Shape" fill="#A47457" fill-rule="nonzero"></path>
                        <path d="M33.1157895,23.615768 L33.8005163,28.0482346 L34.1739696,30.0320856 C34.1739696,30.0320856 35.2631464,26.6533829 35.1076031,23.2748663 C34.0184263,23.4919052 33.1157895,23.615768 33.1157895,23.615768 Z" id="Shape" fill="#884E25" fill-rule="nonzero"></path>
                        <path d="M28.2627522,29.3955333 L28.0982456,31.0331551 C28.0982456,31.0331551 31.7290462,29.3125605 33.1157895,29.3717997 C32.8221218,28.4106818 32.4107614,27.4138686 32.4107614,27.4138686 C32.4107614,27.4138686 31.4353785,26.7850218 28.3686004,28.2445463 C28.333255,28.9326322 28.2627522,29.3955333 28.2627522,29.3955333 Z" id="Shape" fill="#FFFFFF" fill-rule="nonzero"></path>
                        <path d="M16.8087719,33.2084957 C16.8087719,33.2084957 20.4086569,32.669405 23.3315789,33.2855615 C23.2854266,31.9765523 23.162292,29.7895109 22.8239029,29.2812834 C22.2700744,29.3274859 20.039438,29.3428251 17.070179,30.5749534 C16.9163993,31.8839625 16.8087719,33.2084957 16.8087719,33.2084957 Z" id="Shape" fill="#FFFFFF" fill-rule="nonzero"></path>
                        <path d="M38.4160633,18.0761585 C38.760606,18.0803846 39.1045948,18.050618 39.4435982,17.9995371 C39.7826016,17.9482724 40.1166197,17.8687112 40.4399285,17.7623232 C41.0832226,17.5513848 41.6923578,17.198412 42.0930318,16.6699634 L42.3982456,16.2673797 L42.2830288,16.7638568 C41.9227915,18.3148423 41.1349224,19.7829592 39.9945711,20.9289723 C39.4282729,21.504092 38.7831324,22.002774 38.0892463,22.4176686 C37.3949909,22.8336656 36.6506975,23.160363 35.8866473,23.4194424 C34.3548541,23.9344777 32.7455111,24.1715078 31.1442923,24.2284686 C29.5408579,24.2852455 27.9390852,24.18143 26.3574386,23.9684704 C25.561076,23.8545489 24.7985029,23.7343802 24.014696,23.6445292 C23.2355051,23.5521058 22.4552064,23.4776894 21.6741691,23.4288134 C20.1137564,23.3362063 18.5459579,23.3181993 17.011395,23.515357 C15.4868029,23.7132496 13.9659036,24.1318191 12.7544649,25.0115867 C12.1525307,25.4501843 11.6488263,26.0104207 11.2780644,26.6562819 C10.9043482,27.3015918 10.6639438,28.0253606 10.5055206,28.7713624 L10.5106906,28.7320411 C10.4488354,29.5684451 10.5343249,30.4357182 10.7871003,31.2357408 C10.9150575,31.6353846 11.0889906,32.0184915 11.3203475,32.3598884 C11.5515197,32.700734 11.8404851,32.9983998 12.1805963,33.2249565 L13.5990191,34.1695859 L11.9808133,33.6574906 C11.3720474,33.4649265 10.7643893,33.2629916 10.1641169,33.0333112 C9.86407301,32.9179198 9.56569091,32.7960973 9.27137096,32.6566354 C9.12421098,32.5866288 8.97815885,32.5122124 8.83395315,32.4275063 C8.68993209,32.340779 8.5479421,32.2500093 8.41370708,32.1083425 L8.68365425,31.8834394 C8.98646776,32.3047651 9.3782789,32.6779498 9.78707713,33.0243077 C10.1982757,33.3691958 10.6360628,33.6920345 11.0869595,33.9838204 L11.5552126,34.286631 L11.01698,34.1703209 C10.3934427,34.0354526 9.78947748,33.8529945 9.19825257,33.6275402 C8.61145908,33.3958387 8.0386984,33.1183848 7.52631579,32.7538361 C8.06011692,33.0862296 8.64377149,33.3245459 9.2375814,33.5187636 C9.83028345,33.7142676 10.4414497,33.8680615 11.0522467,33.9709583 L10.9822673,34.1574588 C10.5055206,33.8790862 10.0509311,33.5746219 9.61240544,33.2398398 C9.1770187,32.902669 8.75474157,32.539774 8.40059748,32.0929079 L8.67054464,31.8678212 C8.75824977,31.954181 8.88916122,32.0333748 9.0193341,32.1054025 C9.15172269,32.177614 9.29131233,32.2432108 9.43330233,32.3049488 C9.71783624,32.428425 10.0121562,32.5377529 10.3090612,32.6408334 C10.9037943,32.8464433 11.5099752,33.0261452 12.119849,33.1972111 L11.9198813,33.6297452 C11.5127448,33.3798529 11.1648786,33.0397423 10.8925311,32.6553492 C10.6187064,32.2709561 10.4148612,31.8461393 10.2632698,31.4091954 C10.1118631,30.9717003 10.0119716,30.5209755 9.95177814,30.0665759 C9.89269258,29.611625 9.8714587,29.1533668 9.89693935,28.6905149 L9.89786256,28.6743454 L9.90229398,28.6511936 C10.0527775,27.8564996 10.304999,27.0640104 10.7099198,26.3374855 C11.1124402,25.6107769 11.6761534,24.9647319 12.3434509,24.4647637 C13.0096407,23.9614881 13.7640894,23.595837 14.5401414,23.3367575 C15.3171165,23.0754731 16.1162488,22.9104708 16.9166735,22.8026129 C18.5199233,22.5925931 20.1300049,22.5933281 21.7219915,22.7021047 C22.5185388,22.7557581 23.3119471,22.8353193 24.1022165,22.9327038 C24.8889777,23.0264134 25.687556,23.1557694 26.455299,23.2693234 C28.004264,23.4892653 29.5667078,23.6200912 31.1249049,23.5844448 C32.6801477,23.5451235 34.2368676,23.3569694 35.7152992,22.8976087 C37.1885608,22.4386154 38.5851958,21.7008821 39.7032054,20.6355327 C40.8177068,19.5742257 41.6552447,18.2099243 42.0727211,16.7109384 L42.2627181,16.804648 C42.033023,17.0795294 41.7510741,17.3047999 41.4454909,17.4804595 C41.1397231,17.6564865 40.8110597,17.785475 40.4757491,17.8799196 C40.1398846,17.9738129 39.7955266,18.0298549 39.4509839,18.0621939 C39.1064412,18.0925117 38.7598674,18.1011477 38.4160633,18.0761585 Z" id="Shape" fill="#A47457" fill-rule="nonzero"></path>
                        <path d="M5.51929825,35.3825669 C5.60449616,35.1551151 5.76119275,34.9540828 5.95185592,34.7829691 C6.14251908,34.6106307 6.37859611,34.4727599 6.64038264,34.387553 C6.90179384,34.3005964 7.18760093,34.2713776 7.46383732,34.2939478 C7.74101202,34.3154683 8.00711474,34.3900025 8.25051053,34.4935805 L9.28245614,34.9322124 L8.1763846,34.9768279 C8.06960572,34.981202 7.96620473,35.0116456 7.86261608,35.0704331 C7.75902744,35.1286957 7.65862902,35.2149524 7.56592469,35.315906 C7.46927948,35.414935 7.3882101,35.53251 7.30376284,35.6530595 C7.22419474,35.7760584 7.14368835,35.9034313 7.06749815,36.0385027 C7.05267296,35.8857601 7.06243131,35.7309179 7.09283233,35.5790502 C7.11966779,35.4252578 7.17315106,35.2756645 7.24446209,35.1265962 C7.31971399,34.9799773 7.42217667,34.8356329 7.56892726,34.7147336 C7.71361357,34.5936593 7.90953123,34.5025036 8.11670853,34.4759092 L8.04258259,34.9591567 C7.62165988,34.8141125 7.19473203,34.7558498 6.76949312,34.8275846 C6.34275293,34.8979197 5.92201788,35.0952778 5.51929825,35.3825669 Z" id="Shape" fill="#E0B5A2" fill-rule="nonzero"></path>
                        <path d="M23.0807018,41.5147455 C23.6369445,41.7024591 24.1848603,41.8693156 24.7275949,41.9558921 C24.9988696,41.9930806 25.2673687,42.0141344 25.5212493,41.9869809 C25.6480046,41.9736009 25.7705038,41.9505794 25.8850462,41.91162 C25.9424099,41.8925338 25.9979231,41.8712832 26.0508457,41.8451135 L26.244587,41.7492891 C26.7730731,41.495069 27.312847,41.2695766 27.8713103,41.0920948 C28.1490616,41.0002056 28.4331044,40.9250415 28.7214032,40.8648315 C28.8666629,40.8390553 29.0119226,40.8130824 29.1599579,40.80167 C29.306883,40.7914382 29.4600995,40.7835676 29.6035088,40.8260688 C29.3189108,40.8854918 29.0631798,41.0194886 28.8022675,41.1416795 C28.5419104,41.2638704 28.284884,41.3958996 28.0260072,41.5224193 C27.5110293,41.7825423 26.9929056,42.0363688 26.4744118,42.2864569 L26.2758595,42.3807072 C26.1977708,42.4171087 26.1180168,42.4480007 26.0371525,42.4708254 C25.8754239,42.5160813 25.7122149,42.5410705 25.5521517,42.5446122 C25.2314702,42.5530731 24.9241118,42.4971919 24.6347027,42.4041222 C24.0560696,42.2197536 23.5294339,41.9177197 23.0807018,41.5147455 Z" id="Shape" fill="#E8A09D" fill-rule="nonzero"></path>
                        <path d="M22.3332015,42.0449198 C22.3074381,41.7912387 22.3803764,41.5290203 22.5140676,41.3111147 C22.6488032,41.0919895 22.8576957,40.9295767 23.0799921,40.8539602 C23.303333,40.7765143 23.5345073,40.7793601 23.7475776,40.8297711 C23.9609961,40.8834344 24.1606625,40.9799877 24.3350877,41.1302043 C24.118884,41.1430103 23.9179991,41.1354893 23.7244254,41.1482953 C23.531548,41.1596785 23.3478967,41.1854938 23.1786938,41.243629 C22.8397658,41.355021 22.562461,41.6211016 22.3332015,42.0449198 Z" id="Shape" fill="#E8A09D" fill-rule="nonzero"></path>
                        <path d="M14.5508772,31.1390603 L14.4107596,30.2823529 L5.77017544,32.9928607 C5.77017544,32.9928607 6.96528499,32.9532312 7.43421183,33.0352941 C8.32349141,32.7279786 14.5508772,31.1390603 14.5508772,31.1390603 Z" id="Shape" fill="#000000" fill-rule="nonzero"></path>
                        <path d="M7.62311089,33.0022665 C7.10357498,32.9596018 6.5733422,33.0002436 6.08737233,33.1320996 C5.59900488,33.2584386 5.1622775,33.5074385 4.85391256,33.8546408 C4.54370332,34.1994524 4.37365998,34.6588334 4.29896631,35.1156398 C4.22187508,35.5805378 4.31667148,36.0042422 4.5512649,36.3639497 C4.78456733,36.7236572 5.15729792,37.0068624 5.57908657,37.1986696 C6.00161294,37.3904768 6.46932436,37.5111149 6.9429375,37.54201 C7.8909015,37.6034324 8.85030009,37.3476282 9.51996104,36.7405759 L10.0114638,36.2951713 L10.2794388,36.883098 C10.439523,37.2341622 10.6466365,37.6076621 10.8436065,37.9675535 C11.045556,38.3296516 11.2628131,38.6845777 11.4850498,39.0374809 C11.9341339,39.7397931 12.4219481,40.4231637 12.9652753,41.0625824 C13.2349102,41.3840387 13.5181929,41.6948289 13.8167831,41.9901715 C14.113529,42.2875371 14.4207874,42.5753398 14.7440911,42.8443848 C15.387932,43.3859689 16.0871015,43.8602457 16.8172551,44.2753069 C18.2840173,45.0989929 19.9136301,45.6049004 21.5602104,45.7970754 C23.2093727,45.9841012 24.8716294,45.9017143 26.4931274,45.592947 C26.8985018,45.5155253 27.3012943,45.4219204 27.7005827,45.3159943 C27.9003191,45.2626634 28.0991333,45.2062063 28.2972098,45.1469906 L28.5939558,45.0565121 L28.7416832,45.0094338 L28.8156392,44.9858947 L28.8248606,44.9829523 C28.8735498,44.9652979 28.7689787,45.0037329 28.7831797,44.9982159 L28.8014381,44.9901244 C28.7852084,44.9939862 28.7492448,45.0158703 28.7584662,45.0098016 L28.8149014,44.9623555 C28.8433035,44.9375291 28.8755785,44.9064501 28.9076691,44.8750033 C28.9725881,44.8108223 29.0393513,44.740021 29.1057457,44.6670129 C29.2389032,44.520445 29.3711387,44.364866 29.501161,44.2063446 C29.7599146,43.8878307 30.0155329,43.5601217 30.2645118,43.2270797 C31.2582141,41.8906819 32.1860754,40.4932295 33.0141607,39.0468598 C33.8346844,37.5990189 34.5670511,36.0912267 35.0089425,34.5071163 C35.2193757,33.7157967 35.3602793,32.9011218 35.3027376,32.0923317 C35.2538639,31.2868518 34.9692903,30.4870728 34.4008808,29.8623662 L34.4764966,29.7818182 C34.8165833,30.0497598 35.1107472,30.3885027 35.3270822,30.7767146 C35.5471057,31.1630875 35.688747,31.5930445 35.7746908,32.0294381 C35.9397546,32.9071905 35.8853481,33.8057235 35.7315345,34.6671089 C35.5806717,35.5323561 35.3239469,36.3694667 35.0216681,37.1835899 C34.7217869,37.9997359 34.3544047,38.7851707 33.9658132,39.5573648 C33.177749,41.0967877 32.2578182,42.5598922 31.2108159,43.9382191 C30.947636,44.282479 30.6774478,44.6219575 30.3884479,44.952425 C30.244409,45.1181184 30.0966816,45.2821568 29.9393638,45.4456435 C29.8602438,45.5272948 29.7790952,45.6087623 29.6903849,45.6915171 C29.6453843,45.7330784 29.5998304,45.7744558 29.5472682,45.8182239 C29.4930461,45.8623598 29.4402995,45.9061279 29.3495605,45.962585 C29.3368349,45.9715961 29.2765267,46.004698 29.2372434,46.0214329 L29.2188005,46.0289727 C29.2269154,46.0263981 29.1158892,46.0663043 29.1583079,46.0506729 L29.1483487,46.0534314 L29.0695976,46.076051 L28.9120954,46.1212903 L28.5959845,46.2077231 C28.3846291,46.2632607 28.1719827,46.3145687 27.958783,46.3633021 C27.5321992,46.4596654 27.1021112,46.542788 26.6690724,46.6088079 C25.8035481,46.7428707 24.9260359,46.8092584 24.049077,46.79896 C23.1721181,46.7827769 22.2970034,46.687333 21.4425448,46.504353 C19.7301235,46.1468523 18.1136051,45.4625622 16.6394658,44.5811318 C15.8976932,44.14529 15.1981547,43.6441638 14.5240675,43.113062 C14.1891448,42.8447526 13.8568041,42.5725813 13.535898,42.2864337 C13.2166518,41.9989987 12.9012785,41.7060468 12.5945735,41.403716 C11.984483,40.7959281 11.4000282,40.1576128 10.8646314,39.476449 C10.5944432,39.1377061 10.3412225,38.7853546 10.097592,38.4249116 C9.85064187,38.0613422 9.63172489,37.699428 9.41649649,37.2891482 L10.1757898,37.4316703 C9.7516036,37.8630986 9.19352207,38.1757277 8.62160838,38.3430763 C8.0465594,38.517413 7.44716583,38.5563997 6.86326426,38.5043562 C6.27954713,38.4477151 5.70099401,38.2993082 5.17039237,38.023275 C4.64384816,37.7490809 4.14994785,37.347996 3.83107047,36.797217 C3.67024856,36.5250457 3.56991929,36.2135199 3.53100482,35.9005229 C3.51127094,35.7438405 3.5072135,35.5862386 3.51846366,35.431763 C3.52362767,35.353238 3.5315581,35.2805976 3.54446812,35.199498 L3.56493972,35.0821701 L3.58688674,34.985255 C3.65862954,34.688809 3.75434809,34.4193962 3.90041569,34.1560521 C4.04297915,33.8954665 4.2277768,33.6536386 4.4487225,33.4526364 C4.8900606,33.0421727 5.46437186,32.8352858 6.01526067,32.7637489 C6.57242006,32.6980967 7.12257115,32.747014 7.64653335,32.8946853 L7.62311089,33.0022665 Z" id="Shape" fill="#E0B5A2" fill-rule="nonzero"></path>
                        <path d="M17.5614035,29.2812834 C17.3241698,30.6130368 17.1136122,31.9491188 16.9608866,33.2855615 L16.5578947,33.2339795 C16.8468515,31.9040297 17.1911967,30.5897708 17.5614035,29.2812834 Z" id="Shape" fill="#E0B5A2" fill-rule="nonzero"></path>
                        <path d="M15.554386,33.3754836 C16.2832758,33.1713641 17.0366552,33.0382776 17.794895,32.9411084 C18.5536957,32.8432978 19.3212827,32.79327 20.0907391,32.7850924 C20.8598217,32.7831683 21.6324561,32.8232546 22.3923785,32.9387032 C23.1509922,33.052388 23.9026891,33.2358229 24.5859649,33.5358289 C23.8477279,33.3612129 23.1025741,33.2524988 22.3525597,33.1865969 C21.6021714,33.1237416 20.8482312,33.0982467 20.0935433,33.1056226 C19.3386684,33.1073864 18.5832327,33.1426623 17.8270492,33.1888418 C17.0708657,33.2385488 16.3148691,33.3014041 15.554386,33.3754836 Z" id="Shape" fill="#E0B5A2" fill-rule="nonzero"></path>
                        <path d="M22.077193,27.7796791 C22.2572688,27.942918 22.393993,28.1472864 22.5186751,28.3545795 C22.6416898,28.5637007 22.7465488,28.7830586 22.8389951,29.007352 C23.0231467,29.4564872 23.1580182,29.9244506 23.2617656,30.397898 C23.468334,31.346438 23.5552225,32.3169137 23.5824561,33.2855615 L23.2119298,33.2835507 C23.2463888,32.3315376 23.2224898,31.3744061 23.0794667,30.4308017 C23.0073993,29.9595479 22.9047635,29.4919501 22.7519214,29.0387933 C22.6752225,28.8124891 22.5859256,28.5900236 22.4779172,28.3761497 C22.3678709,28.1641038 22.2459677,27.9535203 22.077193,27.7796791 Z" id="Shape" fill="#E0B5A2" fill-rule="nonzero"></path>
                        <path d="M22.8298246,29.2815763 C19.564191,29.2591443 17.0596491,30.5326203 17.0596491,30.5326203" id="Shape" stroke="#A47457" stroke-width="0.5"></path>
                        <path d="M26.0912281,39.1505186 C26.0912281,39.1505186 28.2293043,38.2909091 28.5096149,38.2909091 C28.7899255,38.2909091 28.3475161,38.4004469 28.1409993,38.8380356 C27.9344826,39.2756243 27.9344826,39.7601042 27.5805551,39.7914276 C27.2266276,39.8227509 26.2535038,39.1660865 26.0912281,39.1505186 Z" id="Shape" fill="#E0B5A2" fill-rule="nonzero"></path>
                        <path d="M15.554386,30.5504062 L16.3651438,33.6646119 C16.3651438,33.6646119 17.1527371,35.9315704 21.067539,35.1072219 C23.3839899,34.5805547 24.7738604,33.6188147 24.5653798,32.2906976 C24.3568992,30.9625805 23.4534834,28.1002591 23.4534834,28.1002591 L22.4574095,27.7796791 L21.6698162,27.9399691 L15.8323601,29.7947534 L15.554386,30.5504062 Z" id="Shape" fill="url(#linearGradient-3)" fill-rule="nonzero" opacity="0.4"></path>
                        <path d="M23.0556925,27.0922386 L23.5824561,25.2945988 C23.5824561,25.2945988 23.1702063,25.6402988 22.1853872,25.4328788 C21.6892216,25.3283391 20.3302629,25.0410855 18.4751387,24.8106189 C16.6077385,24.5786773 15.5893898,25.5481121 15.0855289,27.1152852 C14.5816679,28.6824583 14.9023067,27.7605918 14.9023067,27.7605918 C14.9023067,27.7605918 16.0703479,25.8707654 17.3300002,26.308652 C18.5896525,26.7465386 21.6357208,27.5301252 23.0556925,27.0922386 Z" id="Shape" fill="#884E25" fill-rule="nonzero"></path>
                        <path d="M26.2626909,26.7786096 L25.8403509,25.6106952 C25.8403509,25.6106952 26.9196643,25.7274866 27.8581977,25.6106952 C28.6664626,25.5101611 31.9877445,25.1435294 32.3631579,25.026738 L32.1754512,25.4939037 L26.2626909,26.7786096 Z" id="Shape" fill="#884E25" fill-rule="nonzero"></path>
                        <path d="M16.5399875,33.728738 L15.7377537,30.6094417 L15.9616457,29.9936559 L15.8294376,30.0360416 L15.554386,30.7929297 L16.3566198,33.9122261 C16.3566198,33.9122261 17.1359326,36.1828903 21.0095758,35.3571942 C22.4040874,35.0362737 23.4562514,34.5531497 24.0223076,33.9250702 C23.4261791,34.464158 22.4484624,34.8847126 21.1929436,35.1737062 C17.3193003,35.9994023 16.5399875,33.728738 16.5399875,33.728738 Z M30.0175154,32.6507459 C27.7941817,32.9718499 27.2899205,31.0452257 27.2899205,31.0452257 L26.3947192,27.5294118 C26.3263231,27.5618891 26.2577435,27.5938161 26.1897141,27.6277613 L27.1065528,31.2287137 C27.1065528,31.2287137 27.610814,33.155338 29.8341477,32.8342339 C31.472355,32.5975344 33.1340333,32.3230363 33.8684211,31.4797254 C33.0643536,32.1812001 31.5306659,32.4322117 30.0175154,32.6507459 Z" id="Shape" fill="url(#linearGradient-4)" fill-rule="nonzero" opacity="0.4"></path>
                        <path d="M28.6,26.5283422 C28.6,26.5283422 28.5632906,26.8247802 28.507958,27.2696229 C28.4961393,27.3810657 28.4746509,27.500681 28.4683835,27.6293975 C28.4590718,27.7575568 28.4494021,27.8927741 28.4391951,28.0324491 C28.4189601,28.3117992 28.3974717,28.609723 28.3758043,28.9074611 C28.2898506,30.0954418 28.2037179,31.2834225 28.2037179,31.2834225 L27.8473684,31.248318 C27.8473684,31.248318 28.0230362,30.0638663 28.198883,28.8792289 C28.2427552,28.5840912 28.2866273,28.2887676 28.3278135,28.0120179 C28.3482275,27.8738288 28.3682833,27.7402831 28.3869066,27.613424 C28.4028438,27.4861934 28.4329276,27.3686213 28.4529835,27.2586643 C28.541265,26.8205082 28.6,26.5283422 28.6,26.5283422 Z" id="Shape" fill="#CCA593" fill-rule="nonzero"></path>
                        <path d="M31.3596491,26.0278075 C31.3596491,26.0278075 31.4943588,26.222323 31.6809498,26.525661 C31.777249,26.6754341 31.8793735,26.8564889 31.9944228,27.0475919 C32.0488527,27.1450392 32.1049211,27.2457095 32.1622637,27.3480861 C32.21815,27.451221 32.2796795,27.5535976 32.3324711,27.6609034 C32.4384185,27.8749462 32.5552882,28.0842494 32.6459441,28.2905193 C32.6925464,28.3930854 32.7376923,28.492239 32.7804717,28.5864634 C32.8221589,28.6810669 32.8663946,28.7684662 32.8969773,28.8541592 C33.0284103,29.1935185 33.1157895,29.4195053 33.1157895,29.4195053 L32.768093,29.5315508 C32.768093,29.5315508 32.704379,29.305564 32.6093541,28.9663942 C32.5878733,28.8805117 32.5529216,28.7912165 32.5210646,28.6950963 C32.4881154,28.5991657 32.4535278,28.497737 32.4174838,28.3930854 C32.3481266,28.1822655 32.2532837,27.965758 32.1689992,27.7439421 C32.127312,27.6328446 32.0759767,27.5261075 32.0306487,27.4186121 C31.9838645,27.3116855 31.9378083,27.2062756 31.8932085,27.1044677 C31.7976375,26.9038855 31.7133529,26.7135409 31.631981,26.555426 C31.4754266,26.2352148 31.3596491,26.0278075 31.3596491,26.0278075 Z" id="Shape" fill="#CCA593" fill-rule="nonzero"></path>
                        <path d="M27.0947368,31.5336898 C27.0947368,31.5336898 27.4499764,31.2651641 28.0209626,30.9308847 C28.3056308,30.7619396 28.64364,30.576271 29.0137271,30.393073 C29.1995954,30.3035644 29.390413,30.2072144 29.5894791,30.1215066 C29.7881786,30.0346586 29.9905442,29.9481906 30.195476,29.8662836 C30.401141,29.7872272 30.6086391,29.7123517 30.8146707,29.6435574 C31.0197858,29.5715324 31.2272838,29.5171811 31.4274498,29.4634 C31.627799,29.4092387 31.8257653,29.3714209 32.01365,29.3391142 C32.1084173,29.3254313 32.2002516,29.3113684 32.2895198,29.3011063 C32.3798877,29.295215 32.4664064,29.2866633 32.5501754,29.2836226 C32.7180802,29.2771613 32.8727872,29.2841928 33.0086141,29.3033867 C33.1449909,29.3203003 33.2613878,29.3558376 33.3537721,29.3892846 C33.4452398,29.4293829 33.512695,29.4656804 33.5535714,29.5010278 C33.5953643,29.5321943 33.6175439,29.5485376 33.6175439,29.5485376 C33.6175439,29.5485376 33.5918816,29.5382755 33.544223,29.5190815 C33.4989474,29.4951366 33.4250766,29.4818338 33.3348919,29.4620697 C33.2425077,29.4500972 33.1308767,29.4430657 33.0021985,29.4485769 C32.8735204,29.4544681 32.7290783,29.4744223 32.5721717,29.5006477 C32.4154484,29.5301038 32.247177,29.5713424 32.0693739,29.6169518 C31.8921207,29.6665521 31.7068022,29.7243241 31.5150682,29.7855168 C31.1330665,29.9137935 30.7268689,30.0599338 30.3252539,30.2214674 C30.1228884,30.2978632 29.9218059,30.37882 29.7245728,30.460347 C29.5267898,30.5414938 29.3319396,30.6213104 29.1436883,30.6984664 C28.7662692,30.8550589 28.414329,31.0010092 28.1122471,31.1262452 C27.5069834,31.3778575 27.0947368,31.5336898 27.0947368,31.5336898 Z" id="Shape" fill="#CCA593" fill-rule="nonzero"></path>
                        <path d="M27.4702374,23.5999697 C36.749873,23.2185605 38.6166272,20.2839505 39.767467,18.5385805 C39.767467,18.5385805 37.0054515,20.0695456 33.0465626,18.232314 C40.2278029,16.0276361 40.6421053,4.97356501 40.6421053,4.97356501 C40.6421053,4.97356501 39.460515,5.64727782 36.3917317,5.83100098 C34.0108743,5.97357015 20.5806659,4.34192479 14.6633239,3.7540107 C10.5913765,4.5252805 7.27751029,7.00848268 6.59253045,13.455512 C0.945681803,17.1299751 -2.79058865,20.1614072 4.68987003,33.3358272 C4.68987003,33.3358272 5.9788106,32.4172115 7.77412068,32.8994847 C8.69479252,33.496585 9.65008162,33.9445021 11.0310894,34.0363636 C9.90326637,33.301471 9.29322921,32.5551876 9.29322921,32.5551876 C9.29322921,32.5551876 12.2854127,33.5426995 12.5155806,33.6575265 C11.1806065,32.5092568 9.22417883,30.6490598 10.6512202,27.4339046 C12.0782615,24.2187493 15.3236297,22.2896562 25.1287848,23.3919951 C25.9406332,23.4831218 26.7191533,23.5512831 27.4702374,23.5999697 Z" id="Shape" fill="#A47457" fill-rule="nonzero" opacity="0.400000006"></path>
                        <path d="M17.8122807,30.5094173 C17.8122807,30.5094173 17.8417739,32.0304659 19.3306148,32.2690543 C20.8194557,32.5076427 20.6899502,29.9035937 20.3587186,29.7818182 C19.1001517,29.9965477 17.8122807,30.5094173 17.8122807,30.5094173 Z" id="Shape" fill="#000000" fill-rule="nonzero"></path>
                        <path d="M26.0912281,27.4621818 L27.0033364,31.1182704 C27.0033364,31.1182704 27.504996,33.0743942 29.7168588,32.7483735 C31.9287216,32.4223529 34.1861897,32.0264707 34.1177816,30.21007 C34.0493735,28.3936694 33.9353599,26.9032893 33.9353599,26.9032893 L33.5477139,26.0649506 C33.5477139,26.0649506 29.6028452,25.6690684 26.0912281,27.4621818 Z" id="Shape" fill="url(#linearGradient-5)" fill-rule="nonzero" opacity="0.4"></path>
                        <path d="M15.2493725,30.0207764 L14.7199523,30.1682506 C14.7199523,30.1682506 14.4897697,30.2148017 14.5665586,30.5484806 C14.6433476,30.8821595 14.6739158,31.2156522 14.6739158,31.2156522 C14.6739158,31.2156522 14.7046682,31.3242095 15.0039057,31.2156522 C15.195786,31.1380048 15.195786,31.1380048 15.195786,31.1380048 L15.2495566,31.5336898 L16.0321777,31.3163889 L15.8327475,30.703403 C15.8327475,30.703403 15.7253903,30.2922629 16.6921575,29.958584 C17.6589247,29.6249052 21.9173042,28.3214721 21.9173042,28.3214721 C21.9173042,28.3214721 22.7689801,27.925787 22.9531262,28.5775036 C23.0912358,29.0197398 23.0912358,29.0197398 23.0912358,29.0197398 C23.0912358,29.0197398 24.8406242,27.5999287 26.6820856,28.5309524 C26.543976,27.925787 26.543976,27.925787 26.543976,27.925787 C26.543976,27.925787 26.3828481,27.5533775 27.2575422,27.297346 C28.1322364,27.0413145 30.9634833,25.9939129 33.7717119,26.4594248 C34.0249129,26.9947634 34.1169859,27.2740705 34.1169859,27.2740705 L34.4622599,27.1576925 L34.3471686,26.7968277 L34.7845157,26.6921807 C34.7845157,26.6921807 34.9340424,26.6195608 34.8419693,26.3417434 C34.7498962,26.0639259 34.6692402,25.8077082 34.6692402,25.8077082 C34.6692402,25.8077082 34.5771671,25.5634076 34.1282188,25.7261505 C33.9210544,25.4352988 33.9210544,25.4352988 33.9210544,25.4352988 C33.9210544,25.4352988 33.6448352,25.2375493 33.1038139,25.2841005 C32.5627925,25.3306517 30.2495487,25.5518629 26.8774646,26.5409824 C26.2215361,26.7271872 25.795606,26.855296 25.9453169,27.3438972 C26.0950277,27.8324984 26.0948435,27.8326846 26.0948435,27.8326846 C26.0948435,27.8326846 24.5410184,27.6464799 23.5858524,28.2050941 C23.3902892,27.6114734 23.3902892,27.6114734 23.3902892,27.6114734 C23.3902892,27.6114734 23.1370882,26.9482122 21.8596665,27.2971598 C20.5822447,27.6461075 18.027217,28.4143882 15.7942609,29.2407648 C15.3567297,29.4040664 15.0843776,29.531989 15.2493725,30.0207764 Z" id="Shape" fill="#000000" fill-rule="nonzero"></path>
                        <path d="M25.8532123,27.2791435 C25.855606,27.2793298 25.8347994,27.2491501 25.8417963,27.187673 C25.845663,27.1278725 25.8835935,27.0373335 25.9738165,26.9672868 C25.9959119,26.9492163 26.0191121,26.9302143 26.043417,26.9102808 C26.0708522,26.8955635 26.0999445,26.8802874 26.1299575,26.8642661 C26.1603387,26.8488036 26.1910881,26.8301742 26.2247836,26.8156433 C26.2593998,26.8035341 26.2953049,26.7908661 26.3323147,26.7778255 C26.4807223,26.7228687 26.6477269,26.6742459 26.8314871,26.6174261 C27.1967981,26.5011784 27.6237922,26.3668602 28.086323,26.2377583 C28.3175884,26.1731141 28.5589809,26.116667 28.8031354,26.0536995 C29.0465533,25.987565 29.2980728,25.9389422 29.5488559,25.8864072 C29.8003754,25.8390884 30.0496855,25.7777976 30.3001003,25.7474316 C30.5494103,25.7109179 30.7950377,25.6749631 31.0325635,25.6401261 C31.2691687,25.5983962 31.5026436,25.5970921 31.7213883,25.5762271 C31.9405013,25.5600195 32.14783,25.5447434 32.3393236,25.5303987 C32.5308173,25.5233195 32.7072124,25.5303987 32.8629852,25.5309576 C33.018942,25.5328206 33.1546448,25.5344972 33.2664108,25.5358013 C33.4899428,25.5385957 33.6175439,25.540086 33.6175439,25.540086 C33.6175439,25.540086 33.1073237,25.5570388 32.3419014,25.5827474 C32.1515126,25.6017495 31.9452886,25.6220555 31.7270963,25.643852 C31.5094564,25.6703058 31.278191,25.6785027 31.0423223,25.7202326 C30.8060854,25.7567463 30.5621151,25.7945641 30.3139099,25.833127 C30.064784,25.8651696 29.8171311,25.928696 29.5667163,25.9773188 C29.3168539,26.0276183 29.0657026,26.0740056 28.822653,26.1379045 C28.5790509,26.1986365 28.3376584,26.2530344 28.1067613,26.315443 C27.87568,26.3780379 27.6523321,26.4387698 27.4405843,26.4963348 C27.2293889,26.5570667 27.0296094,26.6144454 26.8452968,26.667353 C26.6617206,26.7206332 26.4888239,26.7623631 26.3426259,26.809123 C26.3056161,26.8203006 26.269711,26.8311057 26.2350948,26.8415382 C26.2013993,26.8543925 26.170834,26.871159 26.1404528,26.8849447 C26.1102557,26.8992894 26.0813475,26.9130752 26.0535441,26.9263021 C26.029055,26.9447452 26.0056707,26.9620706 25.9835753,26.9786508 C25.8924317,27.0432949 25.8522916,27.128804 25.845663,27.1874867 C25.8362725,27.2482187 25.855606,27.2793298 25.8532123,27.2791435 Z" id="Shape" fill="#87858A" fill-rule="nonzero"></path>
                        <path d="M7.11452699,14.0105208 C7.11452699,14.0105208 6.92883692,11.5428442 11.3826133,9.76042781 C10.8688089,10.0907584 8.73467289,12.2157124 8.03202165,14.2594709 C10.1245631,11.9266269 12.7934865,11.1779269 14.0491228,11.0673235 C8.50200322,13.6517071 4.74159353,19.5229352 4.74159353,19.5229352 C4.74159353,19.5229352 5.92053981,16.0004573 7.0450789,15.0928805 C4.86990538,15.9649458 3.09805069,17.9387912 3.34130469,20.0213904 C3.09322275,18.322204 3.19386677,16.0542793 7.11452699,14.0105208 Z" id="Shape" fill="#A47457" fill-rule="nonzero"></path>
                        <path d="M32.6140351,8.09817743 C32.6140351,8.09817743 38.3920386,9.32362081 40.6421053,5.00534759 C40.6421053,5.00534759 37.1257554,7.68648041 32.6140351,8.09817743 Z" id="Shape" fill="#A47457" fill-rule="nonzero"></path>
                        <path d="M29.854386,11.1631931 C29.854386,11.1631931 38.9777101,14.6021202 40.6421053,5.00534759 C40.6421053,5.00534759 40.084974,9.93374057 29.854386,11.1631931 Z" id="Shape" fill="#996D51" fill-rule="nonzero"></path>
                        <path d="M14.6189858,30.5326203 C14.6189858,30.5326203 14.5800369,30.4965869 14.558792,30.4176862 C14.5562926,30.3971845 14.5537932,30.375026 14.5508772,30.3518321 C14.5525435,30.328224 14.5571257,30.3023379 14.5637908,30.2760377 C14.568373,30.2489091 14.5879516,30.227579 14.6027397,30.2031425 C14.6171113,30.1772565 14.6371065,30.1577902 14.6604342,30.1426727 L14.7285428,30.0956636 C14.7522871,30.0846879 14.7776977,30.0793036 14.8010254,30.0714343 C14.8243531,30.0635649 14.8478891,30.0588019 14.8695506,30.0538318 C14.8918369,30.0482404 14.9068333,30.0469978 14.9270368,30.0430632 C15.000769,30.0316733 15.0526316,30.0320856 15.0526316,30.0320856 C15.0526316,30.0320856 15.0113915,30.0633578 14.945574,30.0983558 C14.9309942,30.1062251 14.9076664,30.1159583 14.8910038,30.1263127 C14.873508,30.1364601 14.8553873,30.1474357 14.8358087,30.1559264 C14.8166466,30.1648312 14.7968597,30.1741502 14.7766563,30.1834691 L14.7266683,30.2224018 C14.7072979,30.2327562 14.691885,30.246424 14.6825122,30.2636124 C14.6733478,30.2803866 14.6527277,30.2915693 14.648562,30.3102073 C14.6431467,30.3280169 14.6327325,30.3441698 14.6258592,30.3613581 C14.6227349,30.379789 14.6196107,30.3973915 14.616903,30.4133374 C14.6110711,30.4802269 14.6189858,30.5326203 14.6189858,30.5326203 Z" id="Shape" fill="#87858A" fill-rule="nonzero"></path>
                        <path d="M15.3123598,29.5315472 C15.3147285,29.5318983 15.2963259,29.5062729 15.3067115,29.4562507 C15.3079869,29.4311518 15.324203,29.4027182 15.3398725,29.3702476 C15.36447,29.3432181 15.3843302,29.3030248 15.424415,29.2758197 C15.4615845,29.2456309 15.5011226,29.2094745 15.553415,29.1836736 C15.6038854,29.1554154 15.6569066,29.1206632 15.7203134,29.097846 C15.8427541,29.0413297 15.9870592,28.9941158 16.1441186,28.9472529 C16.4580552,28.8494902 16.8242841,28.7355801 17.2169326,28.6134206 C17.6103099,28.4942449 18.0299245,28.3669955 18.4497212,28.2399215 C18.8706112,28.1163579 19.2915012,27.9929699 19.6861539,27.8773045 C20.0817176,27.7644474 20.4510441,27.6591375 20.7675315,27.5689221 C21.4026927,27.3949853 21.8263158,27.2791444 21.8263158,27.2791444 C21.8263158,27.2791444 21.4092521,27.413941 20.7835654,27.615785 C20.4696288,27.7135476 20.1033999,27.8274578 19.7107514,27.9496173 C19.3173741,28.068793 18.8977595,28.1958669 18.4779628,28.3231163 C18.0570728,28.4465044 17.6360006,28.5698925 17.2413479,28.6855579 C16.8457842,28.7984149 16.4766399,28.9037248 16.1599703,28.9939403 C16.0007245,29.0381704 15.8562372,29.0773106 15.733432,29.1266307 C15.6102625,29.1736692 15.5069531,29.2275527 15.4346183,29.2868773 C15.3932582,29.3118006 15.3732158,29.3491856 15.3471607,29.3746355 C15.330398,29.4053509 15.3129064,29.432556 15.3105378,29.4567772 C15.2977835,29.5055708 15.3145463,29.5318983 15.3123598,29.5315472 Z" id="Shape" fill="#87858A" fill-rule="nonzero"></path>
                        <path d="M28.6,28.1845974 C28.6,28.1845974 28.7450778,29.4251477 29.7643712,29.5276003 C30.7836646,29.6300528 30.6430853,27.7073364 30.5257485,27.5294118 C30.3146922,27.5831902 28.6,28.1845974 28.6,28.1845974 Z" id="Shape" fill="#000000" fill-rule="nonzero"></path>
                        <path d="M28.3491228,28.2802139 C28.3491228,28.2802139 31.2651219,26.8137935 32.3631579,27.4306034" id="Shape" stroke="#9A6E51" stroke-width="0.5"></path>
                    </g>
                </g>
            </g>
        </g>
    </g>
</svg>